<?xml version="1.0" encoding="UTF-8" standalone="no"?>
<!DOCTYPE svg PUBLIC "-//W3C//DTD SVG 1.1//EN"
 "http://www.w3.org/Graphics/SVG/1.1/DTD/svg11.dtd">
<!-- Generated by graphviz version 2.40.1 (20161225.0304)
 -->
<!-- Title: snakemake_dag Pages: 1 -->
<svg width="855pt" height="332pt"
 viewBox="0.00 0.00 854.66 332.00" xmlns="http://www.w3.org/2000/svg" xmlns:xlink="http://www.w3.org/1999/xlink">
<g id="graph0" class="graph" transform="scale(1 1) rotate(0) translate(4 328)">
<title>snakemake_dag</title>
<polygon fill="#ffffff" stroke="transparent" points="-4,4 -4,-328 850.661,-328 850.661,4 -4,4"/>
<!-- 0 -->
<g id="node1" class="node">
<title>0</title>
<path fill="none" stroke="#56a9d8" stroke-width="2" d="M360.161,-36C360.161,-36 330.161,-36 330.161,-36 324.161,-36 318.161,-30 318.161,-24 318.161,-24 318.161,-12 318.161,-12 318.161,-6 324.161,0 330.161,0 330.161,0 360.161,0 360.161,0 366.161,0 372.161,-6 372.161,-12 372.161,-12 372.161,-24 372.161,-24 372.161,-30 366.161,-36 360.161,-36"/>
<text text-anchor="middle" x="345.161" y="-15.5" font-family="sans" font-size="10.00" fill="#000000">all</text>
</g>
<!-- 1 -->
<g id="node2" class="node">
<title>1</title>
<path fill="none" stroke="#567bd8" stroke-width="2" d="M63.161,-108C63.161,-108 33.161,-108 33.161,-108 27.161,-108 21.161,-102 21.161,-96 21.161,-96 21.161,-84 21.161,-84 21.161,-78 27.161,-72 33.161,-72 33.161,-72 63.161,-72 63.161,-72 69.161,-72 75.161,-78 75.161,-84 75.161,-84 75.161,-96 75.161,-96 75.161,-102 69.161,-108 63.161,-108"/>
<text text-anchor="middle" x="48.161" y="-87.5" font-family="sans" font-size="10.00" fill="#000000">prokka</text>
</g>
<!-- 1&#45;&gt;0 -->
<g id="edge10" class="edge">
<title>1&#45;&gt;0</title>
<path fill="none" stroke="#c0c0c0" stroke-width="2" d="M75.2054,-77.1953C79.8012,-75.2897 84.5722,-73.4739 89.161,-72 165.267,-47.5549 257.7136,-31.2001 308.0698,-23.3644"/>
<polygon fill="#c0c0c0" stroke="#c0c0c0" stroke-width="2" points="308.7996,-26.7936 318.1554,-21.8218 307.7412,-19.874 308.7996,-26.7936"/>
</g>
<!-- 2 -->
<g id="node3" class="node">
<title>2</title>
<path fill="none" stroke="#b6d856" stroke-width="2" d="M219.661,-180C219.661,-180 162.661,-180 162.661,-180 156.661,-180 150.661,-174 150.661,-168 150.661,-168 150.661,-156 150.661,-156 150.661,-150 156.661,-144 162.661,-144 162.661,-144 219.661,-144 219.661,-144 225.661,-144 231.661,-150 231.661,-156 231.661,-156 231.661,-168 231.661,-168 231.661,-174 225.661,-180 219.661,-180"/>
<text text-anchor="middle" x="191.161" y="-159.5" font-family="sans" font-size="10.00" fill="#000000">abricate_amr</text>
</g>
<!-- 2&#45;&gt;0 -->
<g id="edge4" class="edge">
<title>2&#45;&gt;0</title>
<path fill="none" stroke="#c0c0c0" stroke-width="2" d="M156.2196,-143.7767C143.0103,-134.9077 129.4233,-122.9055 122.161,-108 115.153,-93.6164 112.2678,-84.5748 122.161,-72 144.8845,-43.1172 250.7002,-27.8167 308.0234,-21.5239"/>
<polygon fill="#c0c0c0" stroke="#c0c0c0" stroke-width="2" points="308.5563,-24.9871 318.1316,-20.4525 307.8184,-18.0261 308.5563,-24.9871"/>
</g>
<!-- 8 -->
<g id="node9" class="node">
<title>8</title>
<path fill="none" stroke="#d8a456" stroke-width="2" d="M252.661,-108C252.661,-108 143.661,-108 143.661,-108 137.661,-108 131.661,-102 131.661,-96 131.661,-96 131.661,-84 131.661,-84 131.661,-78 137.661,-72 143.661,-72 143.661,-72 252.661,-72 252.661,-72 258.661,-72 264.661,-78 264.661,-84 264.661,-84 264.661,-96 264.661,-96 264.661,-102 258.661,-108 252.661,-108"/>
<text text-anchor="middle" x="198.161" y="-87.5" font-family="sans" font-size="10.00" fill="#000000">abricate_amr_summary</text>
</g>
<!-- 2&#45;&gt;8 -->
<g id="edge18" class="edge">
<title>2&#45;&gt;8</title>
<path fill="none" stroke="#c0c0c0" stroke-width="2" d="M192.9274,-143.8314C193.6761,-136.131 194.5663,-126.9743 195.3983,-118.4166"/>
<polygon fill="#c0c0c0" stroke="#c0c0c0" stroke-width="2" points="198.8867,-118.7051 196.3708,-108.4133 191.9195,-118.0276 198.8867,-118.7051"/>
</g>
<!-- 3 -->
<g id="node4" class="node">
<title>3</title>
<path fill="none" stroke="#56d0d8" stroke-width="2" d="M338.661,-180C338.661,-180 261.661,-180 261.661,-180 255.661,-180 249.661,-174 249.661,-168 249.661,-168 249.661,-156 249.661,-156 249.661,-150 255.661,-144 261.661,-144 261.661,-144 338.661,-144 338.661,-144 344.661,-144 350.661,-150 350.661,-156 350.661,-156 350.661,-168 350.661,-168 350.661,-174 344.661,-180 338.661,-180"/>
<text text-anchor="middle" x="300.161" y="-159.5" font-family="sans" font-size="10.00" fill="#000000">abricate_plasmid</text>
</g>
<!-- 3&#45;&gt;0 -->
<g id="edge9" class="edge">
<title>3&#45;&gt;0</title>
<path fill="none" stroke="#c0c0c0" stroke-width="2" d="M300.3901,-143.8995C301.1234,-125.3512 303.6843,-95.9214 312.161,-72 315.5028,-62.5696 320.6426,-53.0155 325.8786,-44.6189"/>
<polygon fill="#c0c0c0" stroke="#c0c0c0" stroke-width="2" points="328.959,-46.3041 331.5173,-36.0228 323.1058,-42.4647 328.959,-46.3041"/>
</g>
<!-- 10 -->
<g id="node11" class="node">
<title>10</title>
<path fill="none" stroke="#8fd856" stroke-width="2" d="M461.161,-108C461.161,-108 333.161,-108 333.161,-108 327.161,-108 321.161,-102 321.161,-96 321.161,-96 321.161,-84 321.161,-84 321.161,-78 327.161,-72 333.161,-72 333.161,-72 461.161,-72 461.161,-72 467.161,-72 473.161,-78 473.161,-84 473.161,-84 473.161,-96 473.161,-96 473.161,-102 467.161,-108 461.161,-108"/>
<text text-anchor="middle" x="397.161" y="-87.5" font-family="sans" font-size="10.00" fill="#000000">abricate_plasmid_summary</text>
</g>
<!-- 3&#45;&gt;10 -->
<g id="edge20" class="edge">
<title>3&#45;&gt;10</title>
<path fill="none" stroke="#c0c0c0" stroke-width="2" d="M324.6382,-143.8314C336.7005,-134.8779 351.415,-123.9558 364.4296,-114.2955"/>
<polygon fill="#c0c0c0" stroke="#c0c0c0" stroke-width="2" points="366.748,-116.9335 372.6917,-108.1628 362.5759,-111.3127 366.748,-116.9335"/>
</g>
<!-- 4 -->
<g id="node5" class="node">
<title>4</title>
<path fill="none" stroke="#d85656" stroke-width="2" d="M545.661,-180C545.661,-180 456.661,-180 456.661,-180 450.661,-180 444.661,-174 444.661,-168 444.661,-168 444.661,-156 444.661,-156 444.661,-150 450.661,-144 456.661,-144 456.661,-144 545.661,-144 545.661,-144 551.661,-144 557.661,-150 557.661,-156 557.661,-156 557.661,-168 557.661,-168 557.661,-174 551.661,-180 545.661,-180"/>
<text text-anchor="middle" x="501.161" y="-159.5" font-family="sans" font-size="10.00" fill="#000000">abricate_serotyping</text>
</g>
<!-- 4&#45;&gt;0 -->
<g id="edge1" class="edge">
<title>4&#45;&gt;0</title>
<path fill="none" stroke="#c0c0c0" stroke-width="2" d="M502.1121,-143.9575C502.1819,-124.0781 499.2731,-92.2464 482.161,-72 457.1036,-42.3529 413.5761,-28.8777 382.3027,-22.8202"/>
<polygon fill="#c0c0c0" stroke="#c0c0c0" stroke-width="2" points="382.6675,-19.3305 372.2111,-21.0376 381.4498,-26.2238 382.6675,-19.3305"/>
</g>
<!-- 7 -->
<g id="node8" class="node">
<title>7</title>
<path fill="none" stroke="#56d86b" stroke-width="2" d="M654.661,-108C654.661,-108 541.661,-108 541.661,-108 535.661,-108 529.661,-102 529.661,-96 529.661,-96 529.661,-84 529.661,-84 529.661,-78 535.661,-72 541.661,-72 541.661,-72 654.661,-72 654.661,-72 660.661,-72 666.661,-78 666.661,-84 666.661,-84 666.661,-96 666.661,-96 666.661,-102 660.661,-108 654.661,-108"/>
<text text-anchor="middle" x="598.161" y="-87.5" font-family="sans" font-size="10.00" fill="#000000">abricate_ecoh_summary</text>
</g>
<!-- 4&#45;&gt;7 -->
<g id="edge17" class="edge">
<title>4&#45;&gt;7</title>
<path fill="none" stroke="#c0c0c0" stroke-width="2" d="M525.6382,-143.8314C537.7005,-134.8779 552.415,-123.9558 565.4296,-114.2955"/>
<polygon fill="#c0c0c0" stroke="#c0c0c0" stroke-width="2" points="567.748,-116.9335 573.6917,-108.1628 563.5759,-111.3127 567.748,-116.9335"/>
</g>
<!-- 5 -->
<g id="node6" class="node">
<title>5</title>
<path fill="none" stroke="#d87d56" stroke-width="2" d="M730.661,-180C730.661,-180 659.661,-180 659.661,-180 653.661,-180 647.661,-174 647.661,-168 647.661,-168 647.661,-156 647.661,-156 647.661,-150 653.661,-144 659.661,-144 659.661,-144 730.661,-144 730.661,-144 736.661,-144 742.661,-150 742.661,-156 742.661,-156 742.661,-168 742.661,-168 742.661,-174 736.661,-180 730.661,-180"/>
<text text-anchor="middle" x="695.161" y="-159.5" font-family="sans" font-size="10.00" fill="#000000">abricate_ecolivf</text>
</g>
<!-- 5&#45;&gt;0 -->
<g id="edge2" class="edge">
<title>5&#45;&gt;0</title>
<path fill="none" stroke="#c0c0c0" stroke-width="2" d="M696.8481,-143.9745C697.6846,-123.4964 695.5661,-90.5261 676.161,-72 634.5813,-32.3037 460.2133,-21.718 382.6445,-18.9524"/>
<polygon fill="#c0c0c0" stroke="#c0c0c0" stroke-width="2" points="382.476,-15.445 372.3656,-18.6119 382.2441,-22.4412 382.476,-15.445"/>
</g>
<!-- 9 -->
<g id="node10" class="node">
<title>9</title>
<path fill="none" stroke="#56d892" stroke-width="2" d="M834.661,-108C834.661,-108 735.661,-108 735.661,-108 729.661,-108 723.661,-102 723.661,-96 723.661,-96 723.661,-84 723.661,-84 723.661,-78 729.661,-72 735.661,-72 735.661,-72 834.661,-72 834.661,-72 840.661,-72 846.661,-78 846.661,-84 846.661,-84 846.661,-96 846.661,-96 846.661,-102 840.661,-108 834.661,-108"/>
<text text-anchor="middle" x="785.161" y="-87.5" font-family="sans" font-size="10.00" fill="#000000">abricate_vf_summary</text>
</g>
<!-- 5&#45;&gt;9 -->
<g id="edge19" class="edge">
<title>5&#45;&gt;9</title>
<path fill="none" stroke="#c0c0c0" stroke-width="2" d="M717.8718,-143.8314C728.957,-134.9632 742.4564,-124.1637 754.4462,-114.5718"/>
<polygon fill="#c0c0c0" stroke="#c0c0c0" stroke-width="2" points="756.8352,-117.1429 762.4575,-108.1628 752.4623,-111.6768 756.8352,-117.1429"/>
</g>
<!-- 6 -->
<g id="node7" class="node">
<title>6</title>
<path fill="none" stroke="#68d856" stroke-width="2" d="M131.161,-252C131.161,-252 93.161,-252 93.161,-252 87.161,-252 81.161,-246 81.161,-240 81.161,-240 81.161,-228 81.161,-228 81.161,-222 87.161,-216 93.161,-216 93.161,-216 131.161,-216 131.161,-216 137.161,-216 143.161,-222 143.161,-228 143.161,-228 143.161,-240 143.161,-240 143.161,-246 137.161,-252 131.161,-252"/>
<text text-anchor="middle" x="112.161" y="-231.5" font-family="sans" font-size="10.00" fill="#000000">ariba_run</text>
</g>
<!-- 6&#45;&gt;0 -->
<g id="edge6" class="edge">
<title>6&#45;&gt;0</title>
<path fill="none" stroke="#c0c0c0" stroke-width="2" d="M86.2188,-215.7988C44.6993,-184.5085 -28.1069,-119.3239 12.161,-72 31.2244,-49.5962 225.4613,-29.0985 308.1803,-21.3136"/>
<polygon fill="#c0c0c0" stroke="#c0c0c0" stroke-width="2" points="308.5268,-24.7966 318.1596,-20.3853 307.8784,-17.8266 308.5268,-24.7966"/>
</g>
<!-- 7&#45;&gt;0 -->
<g id="edge7" class="edge">
<title>7&#45;&gt;0</title>
<path fill="none" stroke="#c0c0c0" stroke-width="2" d="M534.645,-71.9243C486.574,-58.244 422.2115,-39.9274 382.2352,-28.5508"/>
<polygon fill="#c0c0c0" stroke="#c0c0c0" stroke-width="2" points="382.9529,-25.1161 372.3767,-25.7452 381.0368,-31.8488 382.9529,-25.1161"/>
</g>
<!-- 8&#45;&gt;0 -->
<g id="edge3" class="edge">
<title>8&#45;&gt;0</title>
<path fill="none" stroke="#c0c0c0" stroke-width="2" d="M235.2553,-71.8314C257.7308,-60.823 286.2824,-46.8385 308.6513,-35.8823"/>
<polygon fill="#c0c0c0" stroke="#c0c0c0" stroke-width="2" points="310.3826,-38.9316 317.8237,-31.3897 307.3035,-32.6452 310.3826,-38.9316"/>
</g>
<!-- 9&#45;&gt;0 -->
<g id="edge8" class="edge">
<title>9&#45;&gt;0</title>
<path fill="none" stroke="#c0c0c0" stroke-width="2" d="M723.4541,-74.9204C718.6282,-73.8833 713.8215,-72.8959 709.161,-72 590.6002,-49.2086 448.7244,-30.6397 382.5645,-22.4791"/>
<polygon fill="#c0c0c0" stroke="#c0c0c0" stroke-width="2" points="382.5875,-18.9558 372.2362,-21.214 381.7364,-25.9039 382.5875,-18.9558"/>
</g>
<!-- 10&#45;&gt;0 -->
<g id="edge5" class="edge">
<title>10&#45;&gt;0</title>
<path fill="none" stroke="#c0c0c0" stroke-width="2" d="M384.0392,-71.8314C378.1111,-63.6232 370.9881,-53.7606 364.4677,-44.7323"/>
<polygon fill="#c0c0c0" stroke="#c0c0c0" stroke-width="2" points="367.1518,-42.4708 358.4595,-36.4133 361.4771,-46.5693 367.1518,-42.4708"/>
</g>
<!-- 11 -->
<g id="node12" class="node">
<title>11</title>
<path fill="none" stroke="#d8cb56" stroke-width="2" d="M260.161,-252C260.161,-252 230.161,-252 230.161,-252 224.161,-252 218.161,-246 218.161,-240 218.161,-240 218.161,-228 218.161,-228 218.161,-222 224.161,-216 230.161,-216 230.161,-216 260.161,-216 260.161,-216 266.161,-216 272.161,-222 272.161,-228 272.161,-228 272.161,-240 272.161,-240 272.161,-246 266.161,-252 260.161,-252"/>
<text text-anchor="middle" x="245.161" y="-231.5" font-family="sans" font-size="10.00" fill="#000000">shovill</text>
</g>
<!-- 11&#45;&gt;1 -->
<g id="edge11" class="edge">
<title>11&#45;&gt;1</title>
<path fill="none" stroke="#c0c0c0" stroke-width="2" d="M217.8544,-222.4705C196.121,-212.6845 165.4321,-197.4728 141.161,-180 114.8774,-161.0783 88.7085,-134.9321 70.8576,-115.6955"/>
<polygon fill="#c0c0c0" stroke="#c0c0c0" stroke-width="2" points="73.3078,-113.1886 63.9744,-108.1749 68.1441,-117.9147 73.3078,-113.1886"/>
</g>
<!-- 11&#45;&gt;2 -->
<g id="edge12" class="edge">
<title>11&#45;&gt;2</title>
<path fill="none" stroke="#c0c0c0" stroke-width="2" d="M231.5345,-215.8314C225.315,-207.5386 217.8288,-197.557 211.001,-188.4533"/>
<polygon fill="#c0c0c0" stroke="#c0c0c0" stroke-width="2" points="213.771,-186.3133 204.971,-180.4133 208.171,-190.5133 213.771,-186.3133"/>
</g>
<!-- 11&#45;&gt;3 -->
<g id="edge13" class="edge">
<title>11&#45;&gt;3</title>
<path fill="none" stroke="#c0c0c0" stroke-width="2" d="M259.0398,-215.8314C265.3746,-207.5386 272.9994,-197.557 279.9536,-188.4533"/>
<polygon fill="#c0c0c0" stroke="#c0c0c0" stroke-width="2" points="282.8062,-190.4847 286.0953,-180.4133 277.2435,-186.2353 282.8062,-190.4847"/>
</g>
<!-- 11&#45;&gt;4 -->
<g id="edge14" class="edge">
<title>11&#45;&gt;4</title>
<path fill="none" stroke="#c0c0c0" stroke-width="2" d="M272.5575,-226.2947C310.9099,-215.5081 381.8146,-195.5662 434.5285,-180.7404"/>
<polygon fill="#c0c0c0" stroke="#c0c0c0" stroke-width="2" points="435.8015,-184.0182 444.4803,-177.9414 433.9062,-177.2797 435.8015,-184.0182"/>
</g>
<!-- 11&#45;&gt;5 -->
<g id="edge15" class="edge">
<title>11&#45;&gt;5</title>
<path fill="none" stroke="#c0c0c0" stroke-width="2" d="M272.2971,-229.6582C343.9639,-218.1915 539.5013,-186.9056 637.5287,-171.2212"/>
<polygon fill="#c0c0c0" stroke="#c0c0c0" stroke-width="2" points="638.2385,-174.6522 647.5599,-169.6162 637.1325,-167.7401 638.2385,-174.6522"/>
</g>
<!-- 12 -->
<g id="node13" class="node">
<title>12</title>
<path fill="none" stroke="#56d8b9" stroke-width="2" d="M178.161,-324C178.161,-324 122.161,-324 122.161,-324 116.161,-324 110.161,-318 110.161,-312 110.161,-312 110.161,-300 110.161,-300 110.161,-294 116.161,-288 122.161,-288 122.161,-288 178.161,-288 178.161,-288 184.161,-288 190.161,-294 190.161,-300 190.161,-300 190.161,-312 190.161,-312 190.161,-318 184.161,-324 178.161,-324"/>
<text text-anchor="middle" x="150.161" y="-303.5" font-family="sans" font-size="10.00" fill="#000000">trimmomatic</text>
</g>
<!-- 12&#45;&gt;6 -->
<g id="edge16" class="edge">
<title>12&#45;&gt;6</title>
<path fill="none" stroke="#c0c0c0" stroke-width="2" d="M140.572,-287.8314C136.3293,-279.7925 131.2489,-270.1666 126.565,-261.2918"/>
<polygon fill="#c0c0c0" stroke="#c0c0c0" stroke-width="2" points="129.6421,-259.6235 121.8791,-252.4133 123.4514,-262.8908 129.6421,-259.6235"/>
</g>
<!-- 12&#45;&gt;11 -->
<g id="edge21" class="edge">
<title>12&#45;&gt;11</title>
<path fill="none" stroke="#c0c0c0" stroke-width="2" d="M174.1335,-287.8314C185.9471,-278.8779 200.3582,-267.9558 213.1045,-258.2955"/>
<polygon fill="#c0c0c0" stroke="#c0c0c0" stroke-width="2" points="215.3405,-260.9925 221.1962,-252.1628 211.1124,-255.4137 215.3405,-260.9925"/>
</g>
</g>
</svg>
