<?xml version="1.0" encoding="UTF-8" standalone="no"?>
<!DOCTYPE svg PUBLIC "-//W3C//DTD SVG 1.1//EN"
 "http://www.w3.org/Graphics/SVG/1.1/DTD/svg11.dtd">
<!-- Generated by graphviz version 2.40.1 (20161225.0304)
 -->
<!-- Title: snakemake_dag Pages: 1 -->
<svg width="834pt" height="332pt"
 viewBox="0.00 0.00 833.50 332.00" xmlns="http://www.w3.org/2000/svg" xmlns:xlink="http://www.w3.org/1999/xlink">
<g id="graph0" class="graph" transform="scale(1 1) rotate(0) translate(4 328)">
<title>snakemake_dag</title>
<polygon fill="#ffffff" stroke="transparent" points="-4,4 -4,-328 829.5,-328 829.5,4 -4,4"/>
<!-- 0 -->
<g id="node1" class="node">
<title>0</title>
<path fill="none" stroke="#56d8d8" stroke-width="2" d="M391,-36C391,-36 361,-36 361,-36 355,-36 349,-30 349,-24 349,-24 349,-12 349,-12 349,-6 355,0 361,0 361,0 391,0 391,0 397,0 403,-6 403,-12 403,-12 403,-24 403,-24 403,-30 397,-36 391,-36"/>
<text text-anchor="middle" x="376" y="-15.5" font-family="sans" font-size="10.00" fill="#000000">all</text>
</g>
<!-- 1 -->
<g id="node2" class="node">
<title>1</title>
<path fill="none" stroke="#5682d8" stroke-width="2" d="M42,-108C42,-108 12,-108 12,-108 6,-108 0,-102 0,-96 0,-96 0,-84 0,-84 0,-78 6,-72 12,-72 12,-72 42,-72 42,-72 48,-72 54,-78 54,-84 54,-84 54,-96 54,-96 54,-102 48,-108 42,-108"/>
<text text-anchor="middle" x="27" y="-87.5" font-family="sans" font-size="10.00" fill="#000000">prokka</text>
</g>
<!-- 1&#45;&gt;0 -->
<g id="edge9" class="edge">
<title>1&#45;&gt;0</title>
<path fill="none" stroke="#c0c0c0" stroke-width="2" d="M54.002,-77.0592C58.6028,-75.17 63.3865,-73.395 68,-72 163.1486,-43.2304 279.7541,-27.9903 338.4464,-21.6437"/>
<polygon fill="#c0c0c0" stroke="#c0c0c0" stroke-width="2" points="339.1356,-25.0906 348.7133,-20.5609 338.4013,-18.1292 339.1356,-25.0906"/>
</g>
<!-- 2 -->
<g id="node3" class="node">
<title>2</title>
<path fill="none" stroke="#d85656" stroke-width="2" d="M205.5,-180C205.5,-180 148.5,-180 148.5,-180 142.5,-180 136.5,-174 136.5,-168 136.5,-168 136.5,-156 136.5,-156 136.5,-150 142.5,-144 148.5,-144 148.5,-144 205.5,-144 205.5,-144 211.5,-144 217.5,-150 217.5,-156 217.5,-156 217.5,-168 217.5,-168 217.5,-174 211.5,-180 205.5,-180"/>
<text text-anchor="middle" x="177" y="-159.5" font-family="sans" font-size="10.00" fill="#000000">abricate_amr</text>
</g>
<!-- 2&#45;&gt;0 -->
<g id="edge1" class="edge">
<title>2&#45;&gt;0</title>
<path fill="none" stroke="#c0c0c0" stroke-width="2" d="M137.4052,-143.8102C123.2524,-135.1243 108.8698,-123.2457 101,-108 93.661,-93.7825 90.8345,-84.3557 101,-72 130.636,-35.9786 270.1501,-23.6232 338.3209,-19.6902"/>
<polygon fill="#c0c0c0" stroke="#c0c0c0" stroke-width="2" points="338.8268,-23.1679 348.6216,-19.129 338.4459,-16.1783 338.8268,-23.1679"/>
</g>
<!-- 7 -->
<g id="node8" class="node">
<title>7</title>
<path fill="none" stroke="#d88556" stroke-width="2" d="M231.5,-108C231.5,-108 122.5,-108 122.5,-108 116.5,-108 110.5,-102 110.5,-96 110.5,-96 110.5,-84 110.5,-84 110.5,-78 116.5,-72 122.5,-72 122.5,-72 231.5,-72 231.5,-72 237.5,-72 243.5,-78 243.5,-84 243.5,-84 243.5,-96 243.5,-96 243.5,-102 237.5,-108 231.5,-108"/>
<text text-anchor="middle" x="177" y="-87.5" font-family="sans" font-size="10.00" fill="#000000">abricate_amr_summary</text>
</g>
<!-- 2&#45;&gt;7 -->
<g id="edge16" class="edge">
<title>2&#45;&gt;7</title>
<path fill="none" stroke="#c0c0c0" stroke-width="2" d="M177,-143.8314C177,-136.131 177,-126.9743 177,-118.4166"/>
<polygon fill="#c0c0c0" stroke="#c0c0c0" stroke-width="2" points="180.5001,-118.4132 177,-108.4133 173.5001,-118.4133 180.5001,-118.4132"/>
</g>
<!-- 3 -->
<g id="node4" class="node">
<title>3</title>
<path fill="none" stroke="#d6d856" stroke-width="2" d="M358.5,-180C358.5,-180 281.5,-180 281.5,-180 275.5,-180 269.5,-174 269.5,-168 269.5,-168 269.5,-156 269.5,-156 269.5,-150 275.5,-144 281.5,-144 281.5,-144 358.5,-144 358.5,-144 364.5,-144 370.5,-150 370.5,-156 370.5,-156 370.5,-168 370.5,-168 370.5,-174 364.5,-180 358.5,-180"/>
<text text-anchor="middle" x="320" y="-159.5" font-family="sans" font-size="10.00" fill="#000000">abricate_plasmid</text>
</g>
<!-- 3&#45;&gt;0 -->
<g id="edge4" class="edge">
<title>3&#45;&gt;0</title>
<path fill="none" stroke="#c0c0c0" stroke-width="2" d="M305.9616,-143.9355C293.2085,-125.1572 278.1938,-95.3077 291,-72 301.3953,-53.0802 321.5373,-39.8489 339.6053,-31.2202"/>
<polygon fill="#c0c0c0" stroke="#c0c0c0" stroke-width="2" points="341.0927,-34.3892 348.8021,-27.1217 338.2433,-27.9954 341.0927,-34.3892"/>
</g>
<!-- 9 -->
<g id="node10" class="node">
<title>9</title>
<path fill="none" stroke="#59d856" stroke-width="2" d="M440,-108C440,-108 312,-108 312,-108 306,-108 300,-102 300,-96 300,-96 300,-84 300,-84 300,-78 306,-72 312,-72 312,-72 440,-72 440,-72 446,-72 452,-78 452,-84 452,-84 452,-96 452,-96 452,-102 446,-108 440,-108"/>
<text text-anchor="middle" x="376" y="-87.5" font-family="sans" font-size="10.00" fill="#000000">abricate_plasmid_summary</text>
</g>
<!-- 3&#45;&gt;9 -->
<g id="edge18" class="edge">
<title>3&#45;&gt;9</title>
<path fill="none" stroke="#c0c0c0" stroke-width="2" d="M334.1312,-143.8314C340.5811,-135.5386 348.3445,-125.557 355.4252,-116.4533"/>
<polygon fill="#c0c0c0" stroke="#c0c0c0" stroke-width="2" points="358.3019,-118.4556 361.6786,-108.4133 352.7764,-114.158 358.3019,-118.4556"/>
</g>
<!-- 4 -->
<g id="node5" class="node">
<title>4</title>
<path fill="none" stroke="#56d8a9" stroke-width="2" d="M524.5,-180C524.5,-180 435.5,-180 435.5,-180 429.5,-180 423.5,-174 423.5,-168 423.5,-168 423.5,-156 423.5,-156 423.5,-150 429.5,-144 435.5,-144 435.5,-144 524.5,-144 524.5,-144 530.5,-144 536.5,-150 536.5,-156 536.5,-156 536.5,-168 536.5,-168 536.5,-174 530.5,-180 524.5,-180"/>
<text text-anchor="middle" x="480" y="-159.5" font-family="sans" font-size="10.00" fill="#000000">abricate_serotyping</text>
</g>
<!-- 4&#45;&gt;0 -->
<g id="edge8" class="edge">
<title>4&#45;&gt;0</title>
<path fill="none" stroke="#c0c0c0" stroke-width="2" d="M480.1856,-143.8216C479.5263,-124.4033 475.9268,-93.5197 461,-72 449.0614,-54.7883 429.6793,-41.8592 412.4361,-32.9741"/>
<polygon fill="#c0c0c0" stroke="#c0c0c0" stroke-width="2" points="413.6612,-29.678 403.1375,-28.4524 410.6,-35.9731 413.6612,-29.678"/>
</g>
<!-- 6 -->
<g id="node7" class="node">
<title>6</title>
<path fill="none" stroke="#80d856" stroke-width="2" d="M633.5,-108C633.5,-108 520.5,-108 520.5,-108 514.5,-108 508.5,-102 508.5,-96 508.5,-96 508.5,-84 508.5,-84 508.5,-78 514.5,-72 520.5,-72 520.5,-72 633.5,-72 633.5,-72 639.5,-72 645.5,-78 645.5,-84 645.5,-84 645.5,-96 645.5,-96 645.5,-102 639.5,-108 633.5,-108"/>
<text text-anchor="middle" x="577" y="-87.5" font-family="sans" font-size="10.00" fill="#000000">abricate_ecoh_summary</text>
</g>
<!-- 4&#45;&gt;6 -->
<g id="edge15" class="edge">
<title>4&#45;&gt;6</title>
<path fill="none" stroke="#c0c0c0" stroke-width="2" d="M504.4772,-143.8314C516.5395,-134.8779 531.254,-123.9558 544.2686,-114.2955"/>
<polygon fill="#c0c0c0" stroke="#c0c0c0" stroke-width="2" points="546.587,-116.9335 552.5306,-108.1628 542.4148,-111.3127 546.587,-116.9335"/>
</g>
<!-- 5 -->
<g id="node6" class="node">
<title>5</title>
<path fill="none" stroke="#d8ac56" stroke-width="2" d="M709.5,-180C709.5,-180 638.5,-180 638.5,-180 632.5,-180 626.5,-174 626.5,-168 626.5,-168 626.5,-156 626.5,-156 626.5,-150 632.5,-144 638.5,-144 638.5,-144 709.5,-144 709.5,-144 715.5,-144 721.5,-150 721.5,-156 721.5,-156 721.5,-168 721.5,-168 721.5,-174 715.5,-180 709.5,-180"/>
<text text-anchor="middle" x="674" y="-159.5" font-family="sans" font-size="10.00" fill="#000000">abricate_ecolivf</text>
</g>
<!-- 5&#45;&gt;0 -->
<g id="edge3" class="edge">
<title>5&#45;&gt;0</title>
<path fill="none" stroke="#c0c0c0" stroke-width="2" d="M675.3736,-143.6909C675.8283,-123.2646 673.1529,-90.6461 654,-72 620.226,-39.1197 481.0896,-25.2001 413.3691,-20.2839"/>
<polygon fill="#c0c0c0" stroke="#c0c0c0" stroke-width="2" points="413.3599,-16.7749 403.1407,-19.5707 412.8729,-23.7579 413.3599,-16.7749"/>
</g>
<!-- 8 -->
<g id="node9" class="node">
<title>8</title>
<path fill="none" stroke="#56d882" stroke-width="2" d="M813.5,-108C813.5,-108 714.5,-108 714.5,-108 708.5,-108 702.5,-102 702.5,-96 702.5,-96 702.5,-84 702.5,-84 702.5,-78 708.5,-72 714.5,-72 714.5,-72 813.5,-72 813.5,-72 819.5,-72 825.5,-78 825.5,-84 825.5,-84 825.5,-96 825.5,-96 825.5,-102 819.5,-108 813.5,-108"/>
<text text-anchor="middle" x="764" y="-87.5" font-family="sans" font-size="10.00" fill="#000000">abricate_vf_summary</text>
</g>
<!-- 5&#45;&gt;8 -->
<g id="edge17" class="edge">
<title>5&#45;&gt;8</title>
<path fill="none" stroke="#c0c0c0" stroke-width="2" d="M696.7108,-143.8314C707.796,-134.9632 721.2954,-124.1637 733.2852,-114.5718"/>
<polygon fill="#c0c0c0" stroke="#c0c0c0" stroke-width="2" points="735.6742,-117.1429 741.2965,-108.1628 731.3013,-111.6768 735.6742,-117.1429"/>
</g>
<!-- 6&#45;&gt;0 -->
<g id="edge5" class="edge">
<title>6&#45;&gt;0</title>
<path fill="none" stroke="#c0c0c0" stroke-width="2" d="M526.5387,-71.9243C491.1763,-59.2572 444.717,-42.615 412.8163,-31.1879"/>
<polygon fill="#c0c0c0" stroke="#c0c0c0" stroke-width="2" points="413.5975,-27.7501 403.003,-27.6727 411.2369,-34.34 413.5975,-27.7501"/>
</g>
<!-- 7&#45;&gt;0 -->
<g id="edge2" class="edge">
<title>7&#45;&gt;0</title>
<path fill="none" stroke="#c0c0c0" stroke-width="2" d="M226.9592,-71.9243C261.8659,-59.2948 307.6939,-42.7138 339.2685,-31.2898"/>
<polygon fill="#c0c0c0" stroke="#c0c0c0" stroke-width="2" points="340.7746,-34.467 348.9873,-27.7734 338.393,-27.8846 340.7746,-34.467"/>
</g>
<!-- 8&#45;&gt;0 -->
<g id="edge7" class="edge">
<title>8&#45;&gt;0</title>
<path fill="none" stroke="#c0c0c0" stroke-width="2" d="M702.2682,-75.0458C697.448,-73.9801 692.6493,-72.952 688,-72 589.1857,-51.7668 471.7423,-32.7971 413.1353,-23.6736"/>
<polygon fill="#c0c0c0" stroke="#c0c0c0" stroke-width="2" points="413.6499,-20.2117 403.2318,-22.1386 412.5777,-27.1291 413.6499,-20.2117"/>
</g>
<!-- 9&#45;&gt;0 -->
<g id="edge6" class="edge">
<title>9&#45;&gt;0</title>
<path fill="none" stroke="#c0c0c0" stroke-width="2" d="M376,-71.8314C376,-64.131 376,-54.9743 376,-46.4166"/>
<polygon fill="#c0c0c0" stroke="#c0c0c0" stroke-width="2" points="379.5001,-46.4132 376,-36.4133 372.5001,-46.4133 379.5001,-46.4132"/>
</g>
<!-- 10 -->
<g id="node11" class="node">
<title>10</title>
<path fill="none" stroke="#56a9d8" stroke-width="2" d="M335,-252C335,-252 305,-252 305,-252 299,-252 293,-246 293,-240 293,-240 293,-228 293,-228 293,-222 299,-216 305,-216 305,-216 335,-216 335,-216 341,-216 347,-222 347,-228 347,-228 347,-240 347,-240 347,-246 341,-252 335,-252"/>
<text text-anchor="middle" x="320" y="-231.5" font-family="sans" font-size="10.00" fill="#000000">shovill</text>
</g>
<!-- 10&#45;&gt;1 -->
<g id="edge10" class="edge">
<title>10&#45;&gt;1</title>
<path fill="none" stroke="#c0c0c0" stroke-width="2" d="M292.9332,-230.4285C254.1877,-224.4555 181.5723,-210.0128 127,-180 96.8269,-163.4059 68.2413,-136.0756 49.4218,-115.8786"/>
<polygon fill="#c0c0c0" stroke="#c0c0c0" stroke-width="2" points="51.7894,-113.2807 42.4627,-108.2544 46.6192,-117.9998 51.7894,-113.2807"/>
</g>
<!-- 10&#45;&gt;2 -->
<g id="edge11" class="edge">
<title>10&#45;&gt;2</title>
<path fill="none" stroke="#c0c0c0" stroke-width="2" d="M292.7662,-220.2879C272.7353,-210.2024 245.0624,-196.2692 221.7954,-184.5543"/>
<polygon fill="#c0c0c0" stroke="#c0c0c0" stroke-width="2" points="223.2967,-181.3916 212.7909,-180.0206 220.1486,-187.6439 223.2967,-181.3916"/>
</g>
<!-- 10&#45;&gt;3 -->
<g id="edge12" class="edge">
<title>10&#45;&gt;3</title>
<path fill="none" stroke="#c0c0c0" stroke-width="2" d="M320,-215.8314C320,-208.131 320,-198.9743 320,-190.4166"/>
<polygon fill="#c0c0c0" stroke="#c0c0c0" stroke-width="2" points="323.5001,-190.4132 320,-180.4133 316.5001,-190.4133 323.5001,-190.4132"/>
</g>
<!-- 10&#45;&gt;4 -->
<g id="edge13" class="edge">
<title>10&#45;&gt;4</title>
<path fill="none" stroke="#c0c0c0" stroke-width="2" d="M347.1418,-221.7862C369.8718,-211.5577 402.9062,-196.6922 430.3476,-184.3436"/>
<polygon fill="#c0c0c0" stroke="#c0c0c0" stroke-width="2" points="432.1118,-187.3878 439.7947,-180.0924 429.2392,-181.0044 432.1118,-187.3878"/>
</g>
<!-- 10&#45;&gt;5 -->
<g id="edge14" class="edge">
<title>10&#45;&gt;5</title>
<path fill="none" stroke="#c0c0c0" stroke-width="2" d="M347.19,-228.4698C404.5195,-216.8096 538.8691,-189.4843 616.2822,-173.7392"/>
<polygon fill="#c0c0c0" stroke="#c0c0c0" stroke-width="2" points="617.251,-177.1139 626.3528,-171.691 615.8558,-170.2543 617.251,-177.1139"/>
</g>
<!-- 11 -->
<g id="node12" class="node">
<title>11</title>
<path fill="none" stroke="#afd856" stroke-width="2" d="M348,-324C348,-324 292,-324 292,-324 286,-324 280,-318 280,-312 280,-312 280,-300 280,-300 280,-294 286,-288 292,-288 292,-288 348,-288 348,-288 354,-288 360,-294 360,-300 360,-300 360,-312 360,-312 360,-318 354,-324 348,-324"/>
<text text-anchor="middle" x="320" y="-303.5" font-family="sans" font-size="10.00" fill="#000000">trimmomatic</text>
</g>
<!-- 11&#45;&gt;10 -->
<g id="edge19" class="edge">
<title>11&#45;&gt;10</title>
<path fill="none" stroke="#c0c0c0" stroke-width="2" d="M320,-287.8314C320,-280.131 320,-270.9743 320,-262.4166"/>
<polygon fill="#c0c0c0" stroke="#c0c0c0" stroke-width="2" points="323.5001,-262.4132 320,-252.4133 316.5001,-262.4133 323.5001,-262.4132"/>
</g>
</g>
</svg>
